<svg width="512" height="512" viewBox="0 0 512 512" fill="none" xmlns="http://www.w3.org/2000/svg">
<path d="M214.263 475.287L214.623 475.791L215.025 476.261C221.311 483.594 229.903 490 240.827 490C253.502 490 264.095 483.578 272.507 474.233C280.069 466.602 286.118 457.729 287.56 447.635L287.618 447.228L287.653 446.818C289.282 427.26 292.982 402.076 298.836 371.131C304.594 340.699 313.255 308.065 324.867 273.212C337.18 238.766 353.197 205.086 372.947 172.168C392.438 139.684 416.382 110.868 444.812 85.6851C452.46 78.9359 458.759 72.2694 463.238 65.6827C467.642 59.2062 471.034 51.7063 471.034 43.5863C471.034 38.8995 469.853 32.813 465.037 27.9971C460.221 23.1812 454.135 22 449.448 22C442.879 22 436.637 24.6676 431.439 27.6377C425.957 30.7701 420.047 35.1755 413.785 40.5429L413.731 40.5893L413.677 40.6364C392.325 59.3193 372.558 82.6743 354.295 110.503C336.299 137.925 319.194 167.438 302.971 199.03L302.937 199.097L302.903 199.164C288.811 227.348 276.144 255.201 264.906 282.723C264.93 279.727 264.942 276.72 264.942 273.701C264.942 237.638 262.367 201.987 257.212 166.755C252.019 130.418 243.265 99.731 230.545 75.1641C217.087 48.3056 196.533 32.115 168.758 32.115C151.76 32.115 134.416 38.4694 117.03 49.4505L116.884 49.5428L116.74 49.6387C100.815 60.2549 86.1903 72.2174 72.8819 85.5258L82.7814 95.4253L72.8819 85.5258C68.7451 89.6627 62.7791 97.0842 55.3192 107.022C51.3433 111.899 48.0165 116.521 45.6081 120.803C43.3681 124.785 40.9653 130.107 40.9653 135.885C40.9653 139.729 41.9358 145.183 46.3302 149.578C50.7246 153.972 56.179 154.943 60.0228 154.943C64.1711 154.943 67.5689 153.463 69.7296 152.285C72.0454 151.022 74.1834 149.412 76.0879 147.779C79.8995 144.512 84.0566 140.04 88.479 134.733L88.7087 134.457L88.924 134.17C95.8013 125 104.322 116.06 114.583 107.377L114.617 107.348L114.651 107.319C124.324 99.028 133.829 95.5173 143.471 95.5173C151.646 95.5173 158.076 97.7306 163.426 101.813C168.946 106.026 174.181 112.903 178.581 123.537C188.001 146.304 194.52 175.18 197.807 210.515C201.14 246.341 202.804 281.732 202.804 316.69C202.804 322.201 202.401 333.669 201.556 351.426L201.54 351.759V352.092V352.191V352.289V352.388V352.487V352.586V352.685V352.783V352.882V352.981V353.08V353.178V353.277V353.376V353.475V353.574V353.672V353.771V353.87V353.969V354.067V354.166V354.265V354.364V354.463V354.561V354.66V354.759V354.858V354.956V355.055V355.154V355.253V355.352V355.45V355.549V355.648V355.747V355.845V355.944V356.043V356.142V356.241V356.339V356.438V356.537V356.636V356.734V356.833V356.932V357.031V357.13V357.228V357.327V357.426V357.525V357.624V357.722V357.821V357.92V358.019V358.117V358.216V358.315V358.414V358.513V358.611V358.71V358.809V358.908V359.006V359.105V359.204V359.303V359.402V359.5V359.599V359.698V359.797V359.895V359.994V360.093V360.192V360.291V360.389V360.488V360.587V360.686V360.784V360.883V360.982V361.081V361.18V361.278V361.377V361.476V361.575V361.673V361.772V361.871V361.97V362.069V362.167V362.266V362.365V362.464V362.562V362.661V362.76V362.859V362.958V363.056V363.155V363.254V363.353V363.451V363.55V363.649V363.748V363.847V363.945V364.044V364.143V364.242V364.34V364.439V364.538V364.637V364.736V364.834V364.933V365.032V365.131V365.229V365.328V365.427V365.526V365.625V365.723V365.822V365.921V366.02V366.118V366.217V366.316V366.415V366.514V366.612V366.711V366.81V366.909V367.008V367.106V367.205V367.304V367.403V367.501V367.6V367.699V367.798V367.897V367.995V368.094V368.193V368.292V368.39V368.489V368.588V368.687V368.786V368.884V368.983V369.082V369.181V369.279V369.378V369.477V369.576V369.675V369.773V369.872V369.971V370.07V370.168V370.267V370.366V370.465V370.564V370.662V370.761V370.86V370.959V371.057V371.156V371.255V371.354V371.453V371.551V371.65V371.749V371.848V371.946V372.045V372.144V372.243V372.342V372.44V372.539V372.638V372.737V372.835V372.934V373.033V373.132V373.231V373.329V373.428V373.527V373.626V373.724V373.823V373.922V374.021V374.12V374.218V374.317V374.416V374.515V374.613V374.712V374.811V374.91V375.009V375.107V375.206V375.305V375.404V375.503V375.601V375.7V375.799V375.898V375.996V376.095V376.194V376.293V376.392V376.49V376.589V376.688V376.787V376.885V376.984V377.083V377.182V377.281V377.379V377.478V377.577V377.676V377.774V377.873V377.972V378.071V378.17V378.268V378.367V378.466V378.565V378.663V378.762V378.861V378.96V379.059V379.157V379.256V379.355V379.454V379.552V379.651V379.75V379.849V379.948V380.046V380.145V380.244V380.343V380.441V380.54V380.639V380.738V380.837V380.935V381.034V381.133V381.232V381.33V381.429V381.528V381.627V381.726V381.824V381.923V382.022V382.121V382.219V382.318V382.417V382.516V382.615V382.713V382.812V382.911V383.01V383.108V383.207V383.306V383.405V383.504V383.602V383.701V383.8V383.899V383.997V384.096V384.195V384.294V384.393V384.491V384.59V384.689V384.788V384.886V384.985V385.084V385.183V385.282V385.38V385.479V385.578V385.677V385.775V385.874V385.973V386.072V386.171V386.269V386.368V386.467V386.566V386.665V386.763V386.862V386.961V387.06V387.158V387.257V387.356V387.455V387.554V387.652V387.751V387.85V387.949V388.047V388.146V388.245V388.344V388.443V388.541V388.64V388.739V388.838V388.936V389.035V389.134V389.233V389.332V389.43V389.529V389.628V389.727V389.825V389.924V390.023V390.122V390.221V390.319V390.418V390.517V390.616V390.714V390.813V390.912V391.011V391.11V391.208V391.307V391.406V391.505V391.603V391.702V391.801V391.9V391.999V392.097V392.196V392.295V392.394V392.492V392.591V392.69V392.789V392.888V392.986V393.085V393.184V393.283V393.381V393.48V393.579V393.678V393.777V393.875V393.974V394.073V394.172V394.27V394.369V394.468V394.567V394.666V394.764V394.863V394.962V395.061V395.159V395.258V395.357V395.456V395.555V395.653V395.752V395.851V395.95V396.048V396.147V396.246V396.345V396.444V396.542V396.641V396.74V396.839V396.938V397.036V397.135V397.234V397.333V397.431V397.53V397.629V397.728V397.827V397.925V398.024V398.123V398.222V398.32V398.419V398.518V398.617V398.716V398.814V398.913V399.012V399.111V399.209V399.308V399.407V399.506V399.605V399.703V399.802V399.901V400V400.098V400.197V400.296V400.395V400.494V400.592V400.691V400.79V400.889V400.987V401.086V401.185V401.284V401.383V401.481V401.58V401.679V401.778V401.876V401.975V402.074V402.173V402.272V402.37V402.469V402.568V402.667V402.716V402.765V402.815V402.864V402.913V402.962V403.012V403.061V403.11V403.159V403.208V403.257V403.306V403.355V403.404V403.453V403.502V403.551V403.6V403.649V403.697V403.746V403.795V403.844V403.892V403.941V403.99V404.038V404.087V404.135V404.184V404.232V404.281V404.329V404.378V404.426V404.474V404.523V404.571V404.619V404.667V404.716V404.764V404.812V404.86V404.908V404.956V405.004V405.052V405.1V405.148V405.196V405.244V405.292V405.339V405.387V405.435V405.483V405.53V405.578V405.626V405.673V405.721V405.768V405.816V405.863V405.911V405.958V406.006V406.053V406.1V406.148V406.195V406.242V406.289V406.337V406.384V406.431V406.478V406.525V406.572V406.619V406.666V406.713V406.76V406.807V406.854V406.901V406.948V406.995V407.041V407.088V407.135V407.181V407.228V407.275V407.321V407.368V407.414V407.461V407.507V407.554V407.6V407.647V407.693V407.739V407.786V407.832V407.878V407.924V407.971V408.017V408.063V408.109V408.155V408.201V408.247V408.293V408.339V408.385V408.431V408.477V408.523V408.568V408.614V408.66V408.706V408.751V408.797V408.843V408.888V408.934V408.98V409.025V409.071V409.116V409.161V409.207V409.252V409.298V409.343V409.388V409.433V409.479V409.524V409.569V409.614V409.659V409.704V409.75V409.795V409.84V409.885V409.929V409.974V410.019V410.064V410.109V410.154V410.199V410.243V410.288V410.333V410.377V410.422V410.467V410.511V410.556V410.6V410.645V410.689V410.734V410.778V410.822V410.867V410.911V410.955V411V411.044V411.088V411.132V411.176V411.22V411.264V411.309V411.353V411.397V411.44V411.484V411.528V411.572V411.616V411.66V411.704V411.747V411.791V411.835V411.879V411.922V411.966V412.009V412.053V412.096V412.14V412.183V412.227V412.27V412.314V412.357V412.4V412.444V412.487V412.53V412.573V412.617V412.66V412.703V412.746V412.789V412.832V412.875V412.918V412.961V413.004V413.047V413.09V413.132V413.175V413.218V413.261V413.304V413.346V413.389V413.431V413.474V413.517V413.559V413.602V413.644V413.687V413.729V413.772V413.814V413.856V413.899V413.941V413.983V414.025V414.068V414.11V414.152V414.194V414.236V414.278V414.32V414.362V414.404V414.446V414.488V414.53V414.572V414.613V414.655V414.697V414.739V414.78V414.822V414.864V414.905V414.947V414.989V415.03V415.072V415.113V415.155V415.196V415.237V415.279V415.32V415.361V415.403V415.444V415.485V415.526V415.567V415.608V415.65V415.691V415.732V415.773V415.814V415.855V415.896V415.936V415.977V416.018V416.059V416.1V416.141V416.181V416.222V416.263V416.303V416.344V416.384V416.425V416.465V416.506V416.546V416.587V416.627V416.668V416.708V416.748V416.789V416.829V416.869V416.909V416.949V416.99V417.03V417.07V417.11V417.15V417.19V417.23V417.27V417.31V417.35V417.389V417.429V417.469V417.509V417.549V417.588V417.628V417.668V417.707V417.747V417.786V417.826V417.865V417.905V417.944V417.984V418.023V418.063V418.102V418.141V418.18V418.22V418.259V418.298V418.337V418.376V418.415V418.455V418.494V418.533V418.572V418.611V418.649V418.688V418.727V418.766V418.805V418.844V418.882V418.921V418.96V418.999V419.037V419.076V419.114V419.153V419.191V419.23V419.268V419.307V419.345V419.384V419.422V419.46V419.499V419.537V419.575V419.613V419.651V419.69V419.728V419.766V419.804V419.842V419.88V419.918V419.956V419.994V420.032V420.069V420.107V420.145V420.183V420.221V420.258V420.296V420.334V420.371V420.409V420.446V420.484V420.522V420.559V420.596V420.634V420.671V420.709V420.746V420.783V420.821V420.858V420.895V420.932V420.969V421.007V421.044V421.081V421.118V421.155V421.192V421.229V421.266V421.303V421.339V421.376V421.413V421.45V421.487V421.523V421.56V421.597V421.633V421.67V421.707V421.743V421.78V421.816V421.853V421.889V421.925V421.962V421.998V422.034V422.071V422.107V422.143V422.18V422.216V422.252V422.288V422.324V422.36V422.396V422.432V422.468V422.504V422.54V422.576V422.612V422.648V422.683V422.719V422.755V422.791V422.826V422.862V422.898V422.933V422.969V423.004V423.04V423.075V423.111V423.146V423.182V423.217V423.252V423.288V423.323V423.358V423.393V423.429V423.464V423.499V423.534V423.569V423.604V423.639V423.674V423.709V423.744V423.779V423.814V423.849V423.883V423.918V423.953V423.988V424.022V424.057V424.092V424.126V424.161C201.54 430.809 201.908 436.941 203.023 441.888C204.836 455.032 208.169 466.755 214.263 475.287ZM68.8557 136.992C68.8553 136.992 68.858 136.981 68.8645 136.958C68.8593 136.98 68.856 136.992 68.8557 136.992Z" fill="#EF4444" stroke="#EF4444" stroke-width="28"/>
</svg>
