<svg width="320" height="320" viewBox="0 0 320 320" fill="none" xmlns="http://www.w3.org/2000/svg">
<path d="M133.932 290.583L134.189 290.942L134.477 291.278C138.342 295.788 143.856 300 151.035 300C159.147 300 165.83 295.885 171.01 290.143C175.586 285.518 179.434 279.96 180.359 273.483L180.401 273.192L180.425 272.899C181.382 261.426 183.556 246.608 187.01 228.353C190.394 210.464 195.489 191.262 202.327 170.735C209.562 150.498 218.975 130.705 230.587 111.352C242.013 92.3079 256.048 75.4167 272.716 60.6524C277.295 56.6119 281.13 52.5654 283.887 48.5111C286.591 44.5349 288.793 39.7629 288.793 34.4828C288.793 31.4471 288.028 27.3336 284.744 24.0497C281.46 20.7657 277.346 20 274.31 20C269.982 20 265.978 21.7494 262.812 23.559C259.442 25.4844 255.858 28.1631 252.113 31.373L252.074 31.4062L252.036 31.4398C239.28 42.6008 227.5 56.527 216.64 73.0767C205.969 89.336 195.831 106.829 186.219 125.547L186.195 125.595L186.171 125.643C179.191 139.603 172.799 153.429 166.999 167.12C166.848 146.866 165.325 126.83 162.426 107.016C159.34 85.4287 154.127 67.0972 146.497 52.3575C138.34 36.0846 125.686 25.977 108.448 25.977C97.9707 25.977 87.4023 29.8919 76.9591 36.4877L76.8547 36.5536L76.752 36.622C67.2494 42.9571 58.5188 50.0978 50.5727 58.0439L57.374 64.8452L50.5727 58.0439C48.0347 60.5819 44.4495 65.0503 40.0555 70.9033C37.6822 73.8161 35.6576 76.6235 34.1723 79.2641C32.8063 81.6925 31.207 85.1556 31.207 89.023C31.207 91.5606 31.8482 95.3006 34.8831 98.3355C37.918 101.37 41.6579 102.012 44.1955 102.012C47.0546 102.012 49.3581 100.994 50.7585 100.23C52.2696 99.4059 53.6342 98.3728 54.8126 97.3627C57.1713 95.341 59.6986 92.6145 62.3375 89.4479L62.5016 89.251L62.6553 89.046C66.6317 83.7441 71.574 78.5539 77.5515 73.496L77.5758 73.4754L77.6 73.4547C83.0535 68.7803 88.2828 66.8966 93.5059 66.8966C97.9929 66.8966 101.416 68.1005 104.249 70.2628C107.205 72.518 110.137 76.2991 112.657 82.3868C118.138 95.6328 121.962 112.515 123.894 133.283C125.858 154.401 126.839 175.26 126.839 195.862C126.839 199.071 126.603 205.806 126.103 216.306L126.092 216.544V216.782V216.84V216.898V216.957V217.015V217.073V217.132V217.19V217.249V217.307V217.365V217.424V217.482V217.54V217.599V217.657V217.715V217.774V217.832V217.891V217.949V218.007V218.066V218.124V218.182V218.241V218.299V218.358V218.416V218.474V218.533V218.591V218.649V218.708V218.766V218.825V218.883V218.941V219V219.058V219.116V219.175V219.233V219.291V219.35V219.408V219.467V219.525V219.583V219.642V219.7V219.758V219.817V219.875V219.934V219.992V220.05V220.109V220.167V220.225V220.284V220.342V220.4V220.459V220.517V220.576V220.634V220.692V220.751V220.809V220.867V220.926V220.984V221.043V221.101V221.159V221.218V221.276V221.334V221.393V221.451V221.509V221.568V221.626V221.685V221.743V221.801V221.86V221.918V221.976V222.035V222.093V222.152V222.21V222.268V222.327V222.385V222.443V222.502V222.56V222.618V222.677V222.735V222.794V222.852V222.91V222.969V223.027V223.085V223.144V223.202V223.261V223.319V223.377V223.436V223.494V223.552V223.611V223.669V223.728V223.786V223.844V223.903V223.961V224.019V224.078V224.136V224.194V224.253V224.311V224.37V224.428V224.486V224.545V224.603V224.661V224.72V224.778V224.837V224.895V224.953V225.012V225.07V225.128V225.187V225.245V225.303V225.362V225.42V225.479V225.537V225.595V225.654V225.712V225.77V225.829V225.887V225.946V226.004V226.062V226.121V226.179V226.237V226.296V226.354V226.413V226.471V226.529V226.588V226.646V226.704V226.763V226.821V226.879V226.938V226.996V227.055V227.113V227.171V227.23V227.288V227.346V227.405V227.463V227.522V227.58V227.638V227.697V227.755V227.813V227.872V227.93V227.988V228.047V228.105V228.164V228.222V228.28V228.339V228.397V228.455V228.514V228.572V228.631V228.689V228.747V228.806V228.864V228.922V228.981V229.039V229.098V229.156V229.214V229.273V229.331V229.389V229.448V229.506V229.564V229.623V229.681V229.74V229.798V229.856V229.915V229.973V230.031V230.09V230.148V230.207V230.265V230.323V230.382V230.44V230.498V230.557V230.615V230.673V230.732V230.79V230.849V230.907V230.965V231.024V231.082V231.14V231.199V231.257V231.316V231.374V231.432V231.491V231.549V231.607V231.666V231.724V231.783V231.841V231.899V231.958V232.016V232.074V232.133V232.191V232.249V232.308V232.366V232.425V232.483V232.541V232.6V232.658V232.716V232.775V232.833V232.892V232.95V233.008V233.067V233.125V233.183V233.242V233.3V233.358V233.417V233.475V233.534V233.592V233.65V233.709V233.767V233.825V233.884V233.942V234.001V234.059V234.117V234.176V234.234V234.292V234.351V234.409V234.467V234.526V234.584V234.643V234.701V234.759V234.818V234.876V234.934V234.993V235.051V235.11V235.168V235.226V235.285V235.343V235.401V235.46V235.518V235.577V235.635V235.693V235.752V235.81V235.868V235.927V235.985V236.043V236.102V236.16V236.219V236.277V236.335V236.394V236.452V236.51V236.569V236.627V236.686V236.744V236.802V236.861V236.919V236.977V237.036V237.094V237.152V237.211V237.269V237.328V237.386V237.444V237.503V237.561V237.619V237.678V237.736V237.795V237.853V237.911V237.97V238.028V238.086V238.145V238.203V238.261V238.32V238.378V238.437V238.495V238.553V238.612V238.67V238.728V238.787V238.845V238.904V238.962V239.02V239.079V239.137V239.195V239.254V239.312V239.371V239.429V239.487V239.546V239.604V239.662V239.721V239.779V239.837V239.896V239.954V240.013V240.071V240.129V240.188V240.246V240.304V240.363V240.421V240.48V240.538V240.596V240.655V240.713V240.771V240.83V240.888V240.946V241.005V241.063V241.122V241.18V241.238V241.297V241.355V241.413V241.472V241.53V241.589V241.647V241.705V241.764V241.822V241.88V241.939V241.997V242.055V242.114V242.172V242.231V242.289V242.347V242.406V242.464V242.522V242.581V242.639V242.698V242.756V242.814V242.873V242.931V242.989V243.048V243.106V243.165V243.223V243.281V243.34V243.398V243.456V243.515V243.573V243.631V243.69V243.748V243.807V243.865V243.923V243.982V244.04V244.098V244.157V244.215V244.274V244.332V244.39V244.449V244.507V244.565V244.624V244.682V244.74V244.799V244.857V244.916V244.974V245.032V245.091V245.149V245.207V245.266V245.324V245.383V245.441V245.499V245.558V245.616V245.674V245.733V245.791V245.85V245.908V245.966V246.025V246.083V246.141V246.2V246.258V246.316V246.375V246.433V246.492V246.55V246.608V246.667V246.696V246.725V246.754V246.783V246.812V246.841V246.871V246.9V246.929V246.958V246.987V247.016V247.045V247.074V247.103V247.131V247.16V247.189V247.218V247.247V247.276V247.305V247.333V247.362V247.391V247.42V247.448V247.477V247.506V247.535V247.563V247.592V247.62V247.649V247.678V247.706V247.735V247.763V247.792V247.82V247.849V247.877V247.906V247.934V247.963V247.991V248.019V248.048V248.076V248.105V248.133V248.161V248.189V248.218V248.246V248.274V248.302V248.331V248.359V248.387V248.415V248.443V248.471V248.499V248.528V248.556V248.584V248.612V248.64V248.668V248.696V248.724V248.752V248.78V248.807V248.835V248.863V248.891V248.919V248.947V248.975V249.002V249.03V249.058V249.086V249.113V249.141V249.169V249.196V249.224V249.252V249.279V249.307V249.334V249.362V249.39V249.417V249.445V249.472V249.5V249.527V249.555V249.582V249.609V249.637V249.664V249.692V249.719V249.746V249.774V249.801V249.828V249.855V249.883V249.91V249.937V249.964V249.991V250.019V250.046V250.073V250.1V250.127V250.154V250.181V250.208V250.235V250.262V250.289V250.316V250.343V250.37V250.397V250.424V250.451V250.478V250.504V250.531V250.558V250.585V250.612V250.638V250.665V250.692V250.719V250.745V250.772V250.799V250.825V250.852V250.879V250.905V250.932V250.958V250.985V251.011V251.038V251.064V251.091V251.117V251.144V251.17V251.197V251.223V251.249V251.276V251.302V251.328V251.355V251.381V251.407V251.433V251.46V251.486V251.512V251.538V251.564V251.591V251.617V251.643V251.669V251.695V251.721V251.747V251.773V251.799V251.825V251.851V251.877V251.903V251.929V251.955V251.981V252.007V252.033V252.058V252.084V252.11V252.136V252.162V252.187V252.213V252.239V252.265V252.29V252.316V252.342V252.367V252.393V252.418V252.444V252.47V252.495V252.521V252.546V252.572V252.597V252.623V252.648V252.673V252.699V252.724V252.75V252.775V252.8V252.826V252.851V252.876V252.902V252.927V252.952V252.977V253.003V253.028V253.053V253.078V253.103V253.128V253.153V253.178V253.204V253.229V253.254V253.279V253.304V253.329V253.354V253.379V253.404V253.428V253.453V253.478V253.503V253.528V253.553V253.578V253.602V253.627V253.652V253.677V253.701V253.726V253.751V253.775V253.8V253.825V253.849V253.874V253.899V253.923V253.948V253.972V253.997V254.021V254.046V254.07V254.095V254.119V254.144V254.168V254.192V254.217V254.241V254.265V254.29V254.314V254.338V254.363V254.387V254.411V254.435V254.46V254.484V254.508V254.532V254.556V254.58V254.604V254.628V254.653V254.677V254.701V254.725V254.749V254.773V254.797V254.821V254.844V254.868V254.892V254.916V254.94V254.964V254.988V255.011V255.035V255.059V255.083V255.106V255.13V255.154V255.178V255.201V255.225V255.249V255.272V255.296V255.319V255.343V255.366V255.39V255.414V255.437V255.461V255.484V255.507V255.531V255.554V255.578V255.601V255.624V255.648V255.671V255.694V255.718V255.741V255.764V255.787V255.811V255.834V255.857V255.88V255.903V255.927V255.95V255.973V255.996V256.019V256.042V256.065V256.088V256.111V256.134V256.157V256.18V256.203V256.226V256.249V256.272V256.294V256.317V256.34V256.363V256.386V256.409V256.431V256.454V256.477V256.499V256.522V256.545V256.568V256.59V256.613V256.635V256.658V256.681V256.703V256.726V256.748V256.771V256.793V256.816V256.838V256.861V256.883V256.905V256.928V256.95V256.973V256.995V257.017V257.039V257.062V257.084V257.106V257.128V257.151V257.173V257.195V257.217V257.239V257.262V257.284V257.306V257.328V257.35V257.372V257.394V257.416V257.438V257.46V257.482V257.504V257.526V257.548V257.57V257.591V257.613V257.635V257.657V257.679V257.701V257.722V257.744V257.766V257.788V257.809V257.831V257.853V257.874V257.896V257.917V257.939V257.961V257.982V258.004V258.025V258.047V258.068V258.09V258.111V258.133V258.154V258.176V258.197V258.218V258.24V258.261V258.282V258.304V258.325V258.346V258.368V258.389V258.41V258.431V258.452V258.474V258.495V258.516V258.537V258.558V258.579V258.6V258.621V258.642V258.663V258.684V258.705V258.726V258.747V258.768V258.789V258.81V258.831V258.852V258.873V258.893V258.914V258.935V258.956V258.977V258.997V259.018V259.039V259.059V259.08V259.101V259.121V259.142V259.163V259.183V259.204V259.224V259.245V259.265V259.286V259.306V259.327V259.347V259.368C126.092 263.297 126.305 267.046 126.994 270.15C128.082 277.992 130.102 285.22 133.932 290.583ZM51.0769 90.1468C51.0729 90.1603 51.0705 90.1673 51.0703 90.1673C51.0702 90.1673 51.0722 90.1605 51.0769 90.1468Z" fill="#EF4444" stroke="#7F1D1D" stroke-width="20"/>
</svg>
